<svg id="svg" version="1.1" xmlns="http://www.w3.org/2000/svg" xmlns:xlink="http://www.w3.org/1999/xlink" width="400" height="100" viewBox="0, 0, 400,100"><g id="svgg"><path id="path0" d="M225.486 10.397 C 225.448 10.432,222.304 10.511,218.500 10.573 C 214.696 10.635,210.496 10.717,209.167 10.754 C 207.838 10.792,195.950 10.848,182.750 10.879 C 160.966 10.930,139.756 11.163,134.583 11.407 C 133.483 11.459,131.083 11.542,129.250 11.590 C 127.417 11.639,124.829 11.718,123.500 11.765 C 122.171 11.813,119.358 11.874,117.250 11.902 C 115.142 11.930,109.404 12.035,104.500 12.135 C 92.735 12.375,52.337 12.376,49.333 12.136 C 45.016 11.792,32.904 11.525,32.368 11.762 C 32.212 11.832,31.933 11.899,31.750 11.912 C 30.929 11.969,29.500 12.468,29.500 12.697 C 29.500 12.783,29.433 12.811,29.350 12.760 C 29.084 12.596,28.167 13.810,28.167 14.328 C 28.167 16.592,29.929 17.138,37.399 17.188 C 44.095 17.233,44.230 17.237,47.667 17.493 C 50.600 17.710,104.881 17.668,113.500 17.441 C 115.837 17.380,119.475 17.288,121.583 17.238 C 123.692 17.187,126.242 17.121,127.250 17.090 C 148.146 16.451,151.078 16.410,179.333 16.359 C 193.862 16.334,207.213 16.273,209.000 16.224 C 210.787 16.176,213.075 16.141,214.083 16.148 C 215.092 16.155,217.079 16.076,218.500 15.973 C 220.341 15.840,242.238 15.778,294.667 15.756 C 362.564 15.729,368.322 15.705,369.177 15.451 C 372.986 14.319,372.418 11.175,368.282 10.503 C 367.310 10.346,225.657 10.240,225.486 10.397 M114.423 23.241 C 113.609 23.716,113.601 23.747,113.344 27.333 C 113.230 28.938,113.073 30.400,112.995 30.583 C 112.918 30.767,112.692 33.654,112.494 37.000 C 112.295 40.346,112.071 43.233,111.996 43.417 C 111.856 43.758,111.158 56.021,111.164 58.028 C 111.165 58.639,111.095 59.164,111.008 59.194 C 110.915 59.227,110.810 61.703,110.752 65.250 L 110.653 71.250 111.075 71.775 C 112.106 73.055,116.643 72.956,117.349 71.638 C 117.454 71.441,117.634 69.810,117.749 68.015 C 117.863 66.219,117.973 64.750,117.992 64.750 C 118.117 64.750,118.531 56.579,118.753 49.750 C 118.803 48.192,118.916 46.542,119.003 46.083 C 119.145 45.341,119.472 37.511,119.765 27.833 C 119.873 24.271,119.786 23.575,119.211 23.404 C 119.049 23.356,118.704 23.208,118.445 23.075 C 117.650 22.668,115.235 22.768,114.423 23.241 M138.049 23.132 C 137.462 23.412,137.351 23.594,137.160 24.583 C 137.089 24.950,136.986 25.438,136.931 25.667 C 136.789 26.255,136.374 31.927,136.249 35.000 C 136.191 36.421,136.079 37.733,136.001 37.917 C 135.922 38.100,135.699 42.225,135.504 47.083 C 135.310 51.942,135.081 56.292,134.997 56.750 C 134.912 57.208,134.801 58.896,134.750 60.500 C 134.698 62.104,134.584 65.616,134.496 68.305 C 134.337 73.153,134.383 73.833,134.868 73.833 C 134.972 73.833,135.185 73.949,135.342 74.091 C 135.732 74.444,137.764 74.599,138.750 74.351 C 139.801 74.086,140.112 73.748,140.221 72.750 C 140.271 72.292,140.317 71.898,140.323 71.875 C 140.347 71.780,141.953 71.842,142.053 71.942 C 142.195 72.084,143.472 72.084,143.613 71.942 C 143.673 71.882,144.141 71.832,144.653 71.831 C 145.783 71.828,148.725 71.243,148.804 71.005 C 148.835 70.910,148.958 70.833,149.077 70.833 C 149.647 70.833,152.672 69.094,153.750 68.146 C 155.133 66.930,157.500 64.345,157.500 64.050 C 157.500 63.959,157.648 63.751,157.829 63.587 C 158.010 63.423,158.324 62.943,158.526 62.520 C 158.728 62.096,158.951 61.711,159.020 61.663 C 159.218 61.527,160.439 58.834,160.680 58.000 C 160.800 57.587,160.988 57.100,161.098 56.917 C 161.209 56.733,161.435 55.983,161.601 55.250 C 161.767 54.517,161.958 53.877,162.025 53.829 C 162.187 53.714,162.831 49.301,162.832 48.302 C 162.833 47.871,162.902 47.477,162.986 47.425 C 163.205 47.290,163.224 41.388,163.006 41.254 C 162.911 41.195,162.833 40.805,162.833 40.387 C 162.833 39.316,162.351 36.182,162.094 35.583 C 161.975 35.308,161.705 34.502,161.493 33.792 C 161.281 33.081,161.052 32.500,160.984 32.500 C 160.916 32.500,160.813 32.286,160.755 32.024 C 160.375 30.293,156.267 25.667,155.111 25.667 C 154.989 25.667,154.843 25.621,154.787 25.564 C 153.846 24.624,147.904 24.190,146.926 24.990 C 146.829 25.069,146.442 25.217,146.065 25.317 C 145.688 25.418,145.103 25.688,144.765 25.917 C 144.428 26.146,144.093 26.333,144.021 26.333 C 143.949 26.333,143.558 26.632,143.153 26.998 C 142.158 27.895,142.167 27.904,142.167 25.917 C 142.167 24.954,142.100 24.167,142.019 24.167 C 141.938 24.167,141.835 24.023,141.788 23.846 C 141.570 23.009,139.238 22.564,138.049 23.132 M324.420 23.243 C 324.056 23.455,323.701 23.731,323.631 23.856 C 323.367 24.332,322.368 26.602,322.248 27.000 C 322.179 27.229,322.073 27.454,322.013 27.500 C 321.954 27.546,321.724 28.146,321.502 28.833 C 321.280 29.521,321.011 30.233,320.904 30.417 C 320.797 30.600,320.583 31.267,320.430 31.898 C 320.277 32.530,320.052 33.242,319.930 33.481 C 319.808 33.721,319.571 34.517,319.403 35.250 C 319.235 35.983,319.056 36.621,319.007 36.667 C 318.957 36.712,318.888 36.862,318.853 37.000 C 318.727 37.492,318.524 38.435,318.315 39.500 C 318.198 40.096,318.050 40.621,317.988 40.667 C 317.925 40.712,317.699 41.725,317.485 42.917 C 317.271 44.108,317.048 45.121,316.991 45.167 C 316.886 45.250,316.422 48.352,316.225 50.292 C 316.167 50.865,316.067 51.333,316.004 51.333 C 315.941 51.333,315.886 51.427,315.883 51.542 C 315.879 51.656,315.779 52.650,315.660 53.750 C 315.230 57.734,315.443 66.648,315.986 67.417 C 316.051 67.508,316.203 67.996,316.325 68.500 C 316.744 70.241,318.405 72.833,319.102 72.833 C 319.207 72.833,319.381 72.940,319.489 73.070 C 320.487 74.272,325.012 73.488,326.677 71.823 C 326.832 71.668,327.026 71.514,327.110 71.479 C 327.412 71.354,329.448 68.888,329.678 68.368 C 329.808 68.074,329.970 67.833,330.037 67.833 C 330.104 67.833,330.301 67.552,330.476 67.208 C 330.650 66.865,331.107 65.983,331.491 65.250 C 331.876 64.517,332.340 63.504,332.522 63.000 C 332.704 62.496,332.951 61.896,333.071 61.667 C 333.191 61.438,333.423 60.837,333.586 60.333 C 333.749 59.829,333.932 59.379,333.993 59.333 C 334.053 59.288,334.277 58.650,334.489 57.917 C 334.702 57.183,334.934 56.508,335.005 56.417 C 335.076 56.325,335.242 55.878,335.374 55.424 L 335.614 54.599 335.729 56.091 C 335.863 57.818,335.891 58.024,336.024 58.250 C 336.079 58.342,336.175 58.904,336.238 59.500 C 336.382 60.847,336.794 62.973,336.998 63.417 C 337.083 63.600,337.260 64.133,337.393 64.602 C 338.085 67.041,340.409 70.351,341.722 70.768 C 341.912 70.828,342.163 70.973,342.280 71.090 C 343.514 72.323,348.202 71.482,349.714 69.756 C 350.141 69.270,351.500 67.236,351.500 67.085 C 351.500 67.015,351.719 66.526,351.987 65.999 C 352.255 65.471,352.570 64.712,352.688 64.312 C 352.805 63.911,352.950 63.546,353.012 63.500 C 353.150 63.396,353.833 60.504,353.833 60.021 C 353.833 59.826,353.899 59.667,353.978 59.667 C 354.135 59.667,354.579 56.572,354.861 53.500 C 355.111 50.785,355.223 41.167,355.005 41.167 C 354.907 41.167,354.833 40.742,354.833 40.173 C 354.833 39.024,354.221 34.055,354.045 33.773 C 353.980 33.669,353.759 32.926,353.556 32.123 C 353.352 31.319,353.069 30.545,352.926 30.402 C 352.783 30.260,352.667 30.044,352.667 29.923 C 352.667 29.314,350.664 29.321,350.054 29.931 C 349.617 30.368,349.561 32.218,349.976 32.491 C 351.043 33.191,351.036 60.167,349.969 60.167 C 349.894 60.167,349.833 60.352,349.833 60.579 C 349.833 61.213,349.144 64.209,348.911 64.583 C 348.797 64.767,348.577 65.310,348.422 65.792 C 348.267 66.273,348.071 66.667,347.987 66.667 C 347.902 66.667,347.833 66.770,347.833 66.895 C 347.833 67.309,346.380 68.500,345.879 68.498 C 345.063 68.494,344.737 68.324,344.422 67.739 C 344.253 67.424,344.062 67.167,343.998 67.167 C 343.934 67.167,343.713 66.435,343.508 65.542 C 343.303 64.648,343.066 63.767,342.983 63.583 C 342.770 63.113,342.368 59.452,342.240 56.813 C 342.106 54.046,342.072 53.647,341.947 53.333 C 341.892 53.196,341.825 48.906,341.799 43.801 C 341.743 33.241,341.879 34.145,340.266 33.597 C 337.693 32.724,336.167 33.704,336.167 36.232 C 336.167 36.379,336.108 36.500,336.036 36.500 C 335.964 36.500,335.726 37.344,335.507 38.375 C 335.289 39.406,335.056 40.325,334.990 40.417 C 334.924 40.508,334.697 41.371,334.486 42.333 C 334.275 43.296,334.057 44.121,334.001 44.167 C 333.945 44.212,333.729 44.998,333.522 45.913 C 333.314 46.828,333.084 47.653,333.010 47.746 C 332.936 47.840,332.700 48.667,332.484 49.583 C 332.269 50.500,332.053 51.288,332.005 51.333 C 331.956 51.379,331.887 51.529,331.852 51.667 C 331.446 53.225,331.131 54.310,331.004 54.583 C 330.920 54.767,330.688 55.517,330.490 56.250 C 330.293 56.983,330.076 57.658,330.009 57.750 C 329.888 57.917,329.439 59.346,329.238 60.208 C 329.179 60.460,329.076 60.667,329.008 60.667 C 328.941 60.667,328.708 61.267,328.490 62.000 C 328.272 62.733,328.041 63.333,327.976 63.333 C 327.912 63.333,327.771 63.615,327.662 63.958 C 327.459 64.605,326.166 67.353,325.996 67.500 C 325.942 67.546,325.739 67.846,325.543 68.167 C 323.961 70.758,322.057 70.767,321.735 68.186 C 321.585 66.984,321.761 60.818,321.949 60.685 C 322.028 60.629,322.268 59.162,322.482 57.425 C 322.697 55.688,322.935 54.151,323.012 54.009 C 323.089 53.866,323.309 52.700,323.500 51.417 C 323.691 50.133,323.913 48.933,323.993 48.750 C 324.074 48.567,324.310 47.367,324.517 46.083 C 324.725 44.800,324.943 43.712,325.001 43.667 C 325.059 43.621,325.282 42.533,325.496 41.250 C 325.711 39.967,325.939 38.842,326.003 38.750 C 326.067 38.658,326.294 37.533,326.507 36.250 C 326.721 34.967,326.944 33.879,327.004 33.833 C 327.063 33.787,327.285 32.662,327.497 31.333 C 327.709 30.004,327.939 28.804,328.008 28.666 C 328.078 28.528,328.258 27.577,328.409 26.553 C 328.734 24.343,328.633 23.696,327.907 23.349 C 327.637 23.220,327.392 23.052,327.361 22.974 C 327.234 22.653,325.098 22.848,324.420 23.243 M8.583 23.431 C 8.492 23.454,8.145 23.518,7.813 23.573 C 6.659 23.765,6.107 24.725,5.406 27.750 C 5.236 28.483,5.046 29.121,4.983 29.167 C 4.921 29.212,4.709 30.075,4.513 31.083 C 4.317 32.092,4.091 33.036,4.011 33.182 C 3.930 33.327,3.700 34.452,3.500 35.682 C 3.300 36.911,3.075 38.035,3.001 38.180 C 2.927 38.325,2.699 39.675,2.494 41.180 C 2.290 42.685,2.062 44.067,1.987 44.250 C 1.257 46.039,1.278 61.045,2.010 61.306 C 2.096 61.336,2.167 61.491,2.167 61.649 C 2.167 62.039,2.827 64.537,2.986 64.748 C 3.055 64.841,3.283 65.348,3.492 65.875 C 3.701 66.402,3.920 66.834,3.978 66.835 C 4.036 66.836,4.224 67.131,4.396 67.489 C 5.116 68.994,7.809 71.258,9.376 71.677 C 9.765 71.781,10.166 71.934,10.268 72.017 C 10.908 72.541,16.534 72.556,17.225 72.035 C 17.330 71.956,17.792 71.755,18.250 71.590 C 18.708 71.424,19.238 71.149,19.427 70.978 C 19.617 70.807,19.850 70.667,19.945 70.667 C 20.139 70.667,22.379 68.486,22.958 67.734 C 23.732 66.727,25.340 63.544,25.686 62.333 C 25.804 61.921,25.954 61.546,26.019 61.499 C 26.084 61.453,26.337 60.516,26.582 59.416 C 26.827 58.316,27.129 56.967,27.253 56.417 C 27.466 55.478,27.822 52.682,28.168 49.250 C 28.345 47.487,28.335 37.125,28.154 34.833 C 27.416 25.502,27.330 25.167,25.696 25.167 C 24.819 25.167,23.932 25.679,23.679 26.333 C 23.382 27.099,23.169 28.077,23.168 28.675 C 23.167 29.000,23.097 29.338,23.012 29.425 C 22.866 29.574,22.764 31.959,22.320 45.583 C 22.219 48.700,22.078 51.325,22.007 51.417 C 21.936 51.508,21.829 52.333,21.768 53.250 C 21.615 55.580,21.151 59.567,21.022 59.667 C 20.963 59.712,20.742 60.611,20.531 61.663 C 20.320 62.715,20.094 63.615,20.029 63.663 C 19.965 63.711,19.743 64.283,19.537 64.935 C 19.331 65.587,19.013 66.293,18.831 66.503 C 18.649 66.713,18.499 66.967,18.498 67.067 C 18.481 68.359,13.850 70.970,13.262 70.019 C 13.211 69.938,12.918 69.824,12.610 69.766 C 11.965 69.645,10.920 68.584,10.542 67.667 C 10.410 67.346,10.203 66.858,10.082 66.583 C 9.712 65.743,9.525 64.979,9.325 63.500 C 9.219 62.721,9.047 61.903,8.941 61.682 C 8.675 61.125,8.710 48.723,8.979 48.455 C 9.082 48.351,9.165 47.888,9.163 47.425 C 9.158 46.120,9.877 37.594,10.000 37.500 C 10.061 37.454,10.284 35.579,10.497 33.333 C 10.710 31.087,10.940 29.175,11.008 29.083 C 11.132 28.918,11.379 26.168,11.379 24.958 C 11.379 23.884,9.929 23.092,8.583 23.431 M232.129 23.593 C 231.496 23.937,231.368 24.252,231.246 25.763 C 231.188 26.489,231.097 27.196,231.045 27.333 C 230.992 27.471,230.926 27.696,230.898 27.833 C 230.815 28.236,230.350 36.019,230.241 38.833 C 230.186 40.254,230.078 41.567,230.001 41.750 C 229.871 42.058,229.152 57.947,229.162 60.282 C 229.165 60.849,229.107 61.351,229.033 61.396 C 228.959 61.442,228.884 62.027,228.866 62.698 C 228.847 63.368,228.759 66.042,228.669 68.639 C 228.458 74.772,228.449 74.755,231.667 74.745 C 233.503 74.739,234.333 74.434,234.333 73.767 C 234.333 73.551,234.382 73.131,234.442 72.832 L 234.550 72.290 235.817 72.394 C 237.185 72.506,240.777 72.250,241.070 72.019 C 241.169 71.941,241.662 71.782,242.167 71.667 C 243.092 71.455,245.833 70.214,245.833 70.007 C 245.833 69.945,246.110 69.763,246.447 69.602 C 246.785 69.441,247.216 69.168,247.405 68.995 C 247.595 68.821,248.137 68.358,248.610 67.965 C 249.747 67.020,252.003 64.295,252.581 63.167 C 252.745 62.846,252.937 62.546,253.006 62.500 C 253.157 62.400,254.402 59.759,254.578 59.167 C 254.646 58.938,254.804 58.587,254.930 58.388 C 255.055 58.188,255.318 57.401,255.515 56.638 C 255.711 55.874,255.933 55.172,256.009 55.078 C 256.180 54.865,256.833 51.162,256.833 50.409 C 256.833 50.108,256.927 49.830,257.042 49.792 C 257.328 49.696,257.342 40.243,257.057 39.650 C 256.951 39.430,256.742 38.468,256.593 37.512 C 256.443 36.557,256.216 35.544,256.087 35.262 C 255.958 34.981,255.704 34.300,255.523 33.750 C 254.605 30.964,251.695 27.170,249.901 26.421 C 249.550 26.274,249.214 26.076,249.155 25.981 C 249.017 25.758,246.771 25.167,246.063 25.167 C 245.764 25.167,245.473 25.092,245.417 25.000 C 245.360 24.908,244.835 24.833,244.250 24.833 C 243.665 24.833,243.140 24.908,243.083 25.000 C 243.027 25.092,242.753 25.167,242.474 25.167 C 241.345 25.167,238.495 26.333,238.117 26.949 C 238.043 27.069,237.891 27.167,237.779 27.167 C 237.666 27.167,237.328 27.392,237.027 27.667 C 236.726 27.942,236.447 28.167,236.406 28.167 C 236.366 28.167,236.331 27.360,236.327 26.375 C 236.321 24.394,236.105 23.885,235.114 23.511 C 234.436 23.254,232.663 23.304,232.129 23.593 M46.004 23.623 C 44.927 23.824,44.643 24.860,44.250 30.000 C 44.190 30.779,44.098 31.529,44.045 31.667 C 43.864 32.135,43.472 36.972,43.242 41.583 C 43.187 42.683,43.078 43.733,43.000 43.917 C 42.806 44.372,42.343 54.260,42.217 60.625 C 42.160 63.490,42.069 65.833,42.015 65.833 C 41.961 65.834,41.894 67.052,41.867 68.542 C 41.802 72.103,42.101 72.500,44.852 72.500 C 47.137 72.500,47.597 72.080,47.746 69.859 C 47.805 68.974,47.920 68.100,48.000 67.917 C 48.081 67.733,48.304 65.071,48.497 62.000 C 48.690 58.929,48.919 56.286,49.007 56.127 C 49.095 55.968,49.167 55.621,49.167 55.357 L 49.167 54.876 51.458 54.793 C 53.575 54.717,56.130 54.301,56.333 54.001 C 56.379 53.933,56.923 53.708,57.542 53.500 C 58.160 53.292,58.667 53.062,58.667 52.989 C 58.667 52.916,58.814 52.809,58.994 52.752 C 59.356 52.637,61.361 51.295,61.824 50.859 C 61.985 50.707,62.259 50.465,62.433 50.320 C 63.563 49.382,64.689 47.795,65.498 46.000 C 65.683 45.587,65.936 45.063,66.059 44.833 C 66.182 44.604,66.410 43.929,66.566 43.333 C 66.722 42.737,66.918 42.100,67.002 41.917 C 67.772 40.228,67.799 32.058,67.037 31.510 C 66.966 31.458,66.775 30.988,66.614 30.463 C 66.452 29.939,66.229 29.413,66.118 29.294 C 66.007 29.175,65.770 28.791,65.591 28.441 C 65.411 28.090,64.958 27.491,64.583 27.110 C 62.788 25.284,61.422 24.684,58.747 24.550 C 56.991 24.461,54.500 24.713,54.500 24.978 C 54.500 25.042,54.121 25.240,53.658 25.420 C 53.195 25.600,52.657 25.916,52.462 26.123 C 52.268 26.330,52.041 26.500,51.958 26.500 C 51.875 26.500,51.515 26.819,51.158 27.208 L 50.509 27.917 50.504 26.281 C 50.499 24.423,50.370 24.068,49.575 23.736 C 49.035 23.510,46.957 23.444,46.004 23.623 M87.687 23.669 C 86.945 23.826,84.968 24.737,84.504 25.135 C 83.673 25.850,82.667 26.826,82.667 26.919 C 82.667 26.978,82.413 27.415,82.103 27.888 C 81.793 28.362,81.440 29.050,81.318 29.417 C 81.197 29.783,81.044 30.158,80.980 30.250 C 80.313 31.198,80.322 39.964,80.990 40.500 C 81.047 40.546,81.266 41.445,81.476 42.498 C 81.686 43.551,81.912 44.451,81.979 44.498 C 82.046 44.545,82.264 45.146,82.463 45.833 C 83.007 47.705,83.874 50.239,84.004 50.333 C 84.066 50.379,84.253 50.829,84.419 51.333 C 84.585 51.837,84.896 52.580,85.110 52.983 C 85.325 53.386,85.500 53.821,85.500 53.950 C 85.500 54.078,85.655 54.498,85.845 54.883 C 86.035 55.268,86.344 56.071,86.531 56.667 C 86.718 57.262,86.923 57.788,86.987 57.833 C 87.104 57.916,87.552 59.301,87.770 60.250 C 87.833 60.525,87.942 60.788,88.013 60.835 C 88.214 60.969,88.666 63.805,88.666 64.937 C 88.667 66.702,87.958 67.938,86.449 68.803 C 85.790 69.181,83.667 69.341,83.667 69.013 C 83.667 68.929,83.443 68.811,83.169 68.751 C 81.526 68.390,80.167 65.821,80.167 63.075 C 80.167 61.134,78.517 60.522,77.167 61.964 C 76.697 62.465,76.540 65.510,76.941 66.350 C 77.046 66.570,77.264 67.125,77.426 67.583 C 78.874 71.678,84.712 73.853,88.987 71.890 C 89.498 71.655,90.085 71.398,90.292 71.319 C 90.498 71.240,90.667 71.098,90.667 71.004 C 90.667 70.910,90.762 70.833,90.877 70.833 C 92.051 70.833,94.823 66.247,94.831 64.292 C 94.832 64.040,94.908 63.833,95.000 63.833 C 95.102 63.833,95.167 63.056,95.167 61.833 C 95.167 60.611,95.102 59.833,95.000 59.833 C 94.908 59.833,94.833 59.546,94.833 59.196 C 94.833 58.269,94.177 54.760,93.991 54.694 C 93.904 54.664,93.833 54.526,93.833 54.388 C 93.833 54.064,93.130 51.609,93.006 51.500 C 92.954 51.454,92.735 50.854,92.520 50.167 C 92.304 49.479,92.062 48.835,91.982 48.735 C 91.902 48.635,91.692 48.110,91.515 47.568 C 91.338 47.026,91.037 46.268,90.846 45.883 C 90.656 45.498,90.500 45.104,90.500 45.008 C 90.500 44.913,90.280 44.365,90.011 43.792 C 89.742 43.219,89.469 42.525,89.405 42.250 C 89.341 41.975,89.195 41.637,89.081 41.500 C 88.967 41.362,88.700 40.688,88.488 40.000 C 88.277 39.313,88.054 38.712,87.995 38.667 C 87.838 38.547,87.167 36.492,87.167 36.134 C 87.167 35.969,87.104 35.833,87.027 35.833 C 86.783 35.833,86.470 33.565,86.465 31.763 C 86.461 30.027,86.733 28.333,87.017 28.333 C 87.099 28.333,87.167 28.240,87.167 28.125 C 87.169 27.760,88.286 26.684,88.777 26.576 C 89.037 26.519,89.352 26.440,89.476 26.401 C 91.886 25.644,93.483 30.088,92.431 34.624 C 92.076 36.155,92.199 36.833,92.830 36.833 C 93.015 36.833,93.167 36.918,93.167 37.021 C 93.167 37.283,94.083 37.079,94.747 36.668 C 95.219 36.377,95.316 36.183,95.564 35.044 C 95.719 34.332,95.918 33.520,96.006 33.238 C 96.222 32.551,96.216 29.167,96.000 29.167 C 95.908 29.167,95.833 28.977,95.833 28.746 C 95.833 28.232,95.283 26.626,94.975 26.239 C 93.182 23.990,90.550 23.062,87.687 23.669 M187.333 24.000 C 187.196 24.089,186.826 24.163,186.511 24.164 C 185.652 24.168,183.804 24.670,183.353 25.023 C 183.134 25.194,182.869 25.333,182.765 25.333 C 182.175 25.333,180.867 27.663,180.402 29.543 C 180.260 30.115,180.043 30.808,179.920 31.083 C 179.797 31.358,179.561 32.446,179.397 33.500 C 179.233 34.554,179.049 35.454,178.987 35.500 C 178.862 35.593,178.164 40.942,178.166 41.792 C 178.166 42.090,178.108 42.333,178.036 42.333 C 177.965 42.333,177.889 42.540,177.869 42.792 C 177.849 43.044,177.719 44.525,177.581 46.083 C 177.443 47.642,177.283 50.454,177.226 52.333 C 177.168 54.212,177.067 55.825,177.000 55.917 C 176.843 56.132,176.885 61.608,177.045 61.767 C 177.112 61.834,177.169 62.720,177.171 63.736 C 177.178 66.663,177.601 70.395,178.013 71.161 C 178.089 71.302,178.275 71.698,178.428 72.042 C 178.580 72.385,178.774 72.667,178.859 72.667 C 178.944 72.667,179.240 72.834,179.518 73.039 C 180.324 73.636,186.475 73.612,187.638 73.009 C 187.791 72.929,188.730 72.703,189.725 72.507 C 190.719 72.310,191.656 72.081,191.808 71.998 C 191.959 71.914,192.719 71.688,193.496 71.495 C 194.273 71.303,194.986 71.084,195.079 71.010 C 195.173 70.936,195.831 70.705,196.542 70.497 C 197.252 70.289,197.833 70.066,197.833 70.002 C 197.833 69.938,198.134 69.796,198.502 69.686 C 200.773 69.005,200.703 66.512,198.418 66.701 C 197.896 66.745,197.420 66.852,197.360 66.940 C 197.257 67.090,195.003 67.835,194.542 67.872 C 194.427 67.881,194.333 67.937,194.333 67.996 C 194.333 68.054,193.790 68.235,193.125 68.398 C 192.460 68.561,191.654 68.800,191.333 68.930 C 189.688 69.598,185.165 70.055,184.583 69.613 C 184.088 69.236,184.496 51.500,185.000 51.500 C 185.058 51.500,185.119 51.144,185.138 50.708 C 185.199 49.227,185.686 42.918,185.755 42.708 C 185.800 42.571,186.178 42.501,186.870 42.502 C 188.644 42.505,193.731 42.149,194.083 41.997 C 194.267 41.918,195.242 41.807,196.250 41.750 C 199.015 41.593,199.500 41.357,199.500 40.170 C 199.500 39.067,196.600 38.206,195.583 39.006 C 195.386 39.162,186.378 39.600,186.239 39.461 C 186.186 39.408,186.264 38.177,186.411 36.724 C 186.558 35.272,186.724 33.596,186.781 33.000 C 186.838 32.404,186.931 31.879,186.988 31.833 C 187.045 31.787,187.220 30.855,187.375 29.760 C 187.555 28.500,187.754 27.675,187.918 27.510 C 188.225 27.203,192.691 27.146,196.844 27.396 L 199.271 27.542 199.719 27.127 C 201.372 25.595,198.947 24.167,194.695 24.167 C 194.415 24.167,194.140 24.092,194.083 24.000 C 193.949 23.782,187.671 23.782,187.333 24.000 M285.096 24.672 C 284.370 24.755,283.733 24.891,283.680 24.974 C 283.627 25.057,283.321 25.180,283.000 25.247 C 282.425 25.367,281.329 25.812,281.167 25.991 C 281.121 26.042,280.735 26.254,280.308 26.462 C 279.882 26.670,279.490 26.951,279.438 27.087 C 279.386 27.222,279.240 27.333,279.113 27.333 C 278.757 27.333,276.381 29.750,275.506 31.002 C 275.282 31.322,275.058 31.621,275.008 31.667 C 274.958 31.712,274.737 32.125,274.517 32.583 C 274.298 33.042,274.019 33.533,273.897 33.675 C 273.775 33.817,273.559 34.264,273.416 34.668 C 273.274 35.072,273.098 35.444,273.027 35.493 C 272.955 35.543,272.727 36.146,272.521 36.833 C 272.314 37.521,272.080 38.233,272.001 38.417 C 271.780 38.926,271.554 39.805,271.335 41.000 C 271.226 41.596,271.072 42.233,270.993 42.417 C 270.020 44.675,270.026 57.580,271.001 59.299 C 271.090 59.456,271.314 60.217,271.500 60.992 C 271.686 61.766,271.897 62.441,271.967 62.492 C 272.038 62.542,272.243 63.027,272.423 63.570 C 272.603 64.113,272.836 64.643,272.941 64.749 C 273.046 64.854,273.291 65.292,273.487 65.720 C 273.682 66.149,273.903 66.500,273.977 66.500 C 274.052 66.500,274.199 66.688,274.304 66.918 C 274.506 67.362,275.218 68.187,276.149 69.055 C 276.461 69.346,276.978 69.827,277.298 70.125 C 277.618 70.423,277.941 70.667,278.016 70.667 C 278.091 70.667,278.428 70.854,278.765 71.083 C 279.103 71.312,279.688 71.582,280.065 71.684 C 280.442 71.785,280.790 71.932,280.839 72.010 C 281.278 72.714,288.690 72.704,289.583 71.999 C 289.675 71.927,290.126 71.756,290.586 71.621 C 291.046 71.485,291.770 71.140,292.194 70.854 C 292.618 70.568,293.021 70.333,293.090 70.333 C 293.237 70.333,293.492 70.099,295.167 68.427 C 296.623 66.973,297.173 66.306,297.583 65.500 C 297.746 65.179,297.930 64.879,297.992 64.833 C 298.194 64.683,299.450 62.239,299.670 61.570 C 299.787 61.211,299.977 60.767,300.091 60.583 C 300.205 60.400,300.437 59.688,300.606 59.000 C 300.776 58.313,300.963 57.712,301.024 57.667 C 301.155 57.566,301.833 53.653,301.833 52.993 C 301.833 52.737,301.927 52.497,302.042 52.458 C 302.203 52.405,302.250 51.163,302.250 47.000 C 302.250 42.837,302.203 41.595,302.042 41.542 C 301.927 41.503,301.833 41.267,301.833 41.015 C 301.833 40.328,301.168 36.772,301.021 36.671 C 300.950 36.623,300.792 36.208,300.671 35.750 C 300.549 35.292,300.305 34.617,300.130 34.250 C 299.954 33.883,299.660 33.190,299.476 32.708 C 299.293 32.227,299.087 31.833,299.019 31.833 C 298.951 31.833,298.762 31.555,298.600 31.214 C 298.329 30.645,297.614 29.650,297.000 28.985 C 296.862 28.836,296.500 28.442,296.195 28.108 C 295.544 27.395,294.276 26.333,294.077 26.333 C 294.001 26.333,293.783 26.191,293.594 26.018 C 292.481 24.999,288.190 24.319,285.096 24.672 M374.167 24.959 C 374.167 25.029,373.848 25.184,373.458 25.304 C 372.309 25.657,371.757 26.424,371.420 28.133 C 371.262 28.931,371.070 29.733,370.992 29.917 C 370.833 30.288,370.407 34.063,370.248 36.500 C 370.191 37.371,370.080 38.233,370.002 38.417 C 369.870 38.726,369.454 44.594,369.235 49.250 C 369.183 50.350,369.076 51.400,368.997 51.583 C 368.852 51.918,368.421 60.915,368.223 67.751 C 368.095 72.148,368.143 72.335,369.496 72.682 C 369.956 72.800,370.333 72.957,370.333 73.032 C 370.333 73.220,371.942 73.201,372.294 73.008 C 372.453 72.921,372.865 72.725,373.208 72.572 C 373.597 72.400,373.833 72.182,373.833 71.995 C 373.833 71.830,373.898 71.669,373.977 71.639 C 374.110 71.587,374.540 65.674,374.763 60.833 C 374.816 59.688,374.923 58.600,375.001 58.417 C 375.079 58.233,375.305 54.821,375.504 50.833 C 375.703 46.846,375.928 43.433,376.004 43.250 C 376.111 42.993,376.425 36.735,376.514 33.083 L 376.526 32.583 376.705 33.083 C 376.803 33.358,376.930 33.621,376.988 33.667 C 377.045 33.712,377.230 34.200,377.398 34.750 C 377.566 35.300,377.838 36.050,378.002 36.417 C 378.166 36.783,378.389 37.421,378.497 37.833 C 378.605 38.246,378.790 38.733,378.907 38.917 C 379.023 39.100,379.248 39.700,379.406 40.250 C 379.564 40.800,379.785 41.400,379.899 41.583 C 380.012 41.767,380.279 42.517,380.493 43.250 C 380.706 43.983,380.931 44.621,380.992 44.667 C 381.053 44.712,381.277 45.313,381.489 46.000 C 381.701 46.688,381.933 47.325,382.005 47.417 C 382.077 47.508,382.262 48.033,382.418 48.583 C 382.574 49.133,382.798 49.738,382.918 49.928 C 383.037 50.117,383.300 50.830,383.503 51.511 C 383.705 52.193,383.923 52.788,383.987 52.833 C 384.051 52.879,384.278 53.479,384.491 54.167 C 384.704 54.854,384.927 55.454,384.985 55.500 C 385.044 55.546,385.270 56.146,385.488 56.833 C 385.706 57.521,385.946 58.164,386.022 58.263 C 386.098 58.362,386.320 58.962,386.515 59.596 C 386.711 60.231,386.927 60.788,386.996 60.833 C 387.065 60.879,387.296 61.479,387.509 62.167 C 387.722 62.854,387.946 63.454,388.007 63.500 C 388.068 63.546,388.279 64.054,388.477 64.629 C 388.674 65.205,388.906 65.805,388.992 65.963 C 389.078 66.121,389.314 66.775,389.516 67.417 C 389.718 68.058,389.936 68.621,390.000 68.667 C 390.065 68.712,390.252 69.162,390.417 69.667 C 390.959 71.327,391.587 72.257,392.312 72.474 C 393.650 72.875,396.533 72.646,396.983 72.104 C 397.158 71.894,397.454 61.090,397.759 43.833 C 397.815 40.671,397.904 37.971,397.956 37.833 C 398.100 37.452,398.114 37.141,398.246 31.469 L 398.370 26.188 397.939 25.757 C 397.702 25.521,397.280 25.281,397.001 25.225 C 396.722 25.169,396.453 25.058,396.403 24.978 C 396.289 24.793,394.921 24.789,394.539 24.973 C 394.380 25.050,394.025 25.221,393.750 25.354 C 393.434 25.506,393.229 25.746,393.192 26.006 C 393.161 26.232,393.080 26.492,393.013 26.583 C 392.868 26.783,392.919 25.423,392.490 40.417 C 392.296 47.200,392.069 52.880,391.985 53.039 C 391.902 53.199,391.824 54.399,391.813 55.706 C 391.801 57.014,391.745 58.608,391.688 59.250 L 391.583 60.417 391.358 59.667 C 391.234 59.254,391.073 58.842,391.000 58.750 C 390.928 58.658,390.709 58.064,390.514 57.430 C 390.319 56.795,390.093 56.195,390.012 56.096 C 389.931 55.997,389.736 55.467,389.579 54.917 C 389.422 54.367,389.194 53.729,389.072 53.500 C 388.950 53.271,388.682 52.521,388.477 51.833 C 388.272 51.146,388.050 50.546,387.985 50.500 C 387.920 50.454,387.739 49.967,387.583 49.417 C 387.427 48.867,387.206 48.267,387.092 48.083 C 386.977 47.900,386.718 47.211,386.515 46.552 C 386.312 45.893,386.094 45.331,386.031 45.302 C 385.968 45.273,385.738 44.688,385.520 44.000 C 385.302 43.313,385.070 42.712,385.003 42.667 C 384.937 42.621,384.715 42.096,384.510 41.500 C 384.306 40.904,384.080 40.342,384.008 40.250 C 383.936 40.158,383.707 39.558,383.497 38.917 C 383.288 38.275,383.064 37.712,383.000 37.667 C 382.935 37.621,382.750 37.171,382.589 36.667 C 382.428 36.162,382.206 35.600,382.096 35.417 C 381.986 35.233,381.723 34.596,381.511 34.000 C 381.300 33.404,381.060 32.834,380.979 32.732 C 380.898 32.630,380.682 32.113,380.500 31.583 C 380.318 31.053,380.104 30.536,380.024 30.435 C 379.945 30.333,379.744 29.875,379.579 29.417 C 379.413 28.958,379.189 28.471,379.082 28.333 C 378.975 28.196,378.716 27.652,378.507 27.125 C 378.299 26.598,378.079 26.167,378.020 26.167 C 377.961 26.167,377.838 25.998,377.748 25.792 C 377.657 25.584,377.342 25.346,377.042 25.257 C 376.744 25.169,376.500 25.038,376.500 24.966 C 376.500 24.893,375.975 24.833,375.333 24.833 C 374.692 24.833,374.167 24.890,374.167 24.959 M59.405 26.829 C 60.230 27.143,61.299 28.309,61.596 29.221 C 61.751 29.695,61.949 30.174,62.037 30.285 C 62.561 30.948,62.540 38.227,62.012 38.915 C 61.941 39.008,61.752 39.758,61.592 40.583 C 61.432 41.408,61.169 42.383,61.008 42.750 C 60.846 43.117,60.576 43.810,60.407 44.292 C 60.239 44.773,60.050 45.167,59.987 45.167 C 59.925 45.167,59.778 45.410,59.661 45.708 C 59.380 46.421,57.896 48.427,57.184 49.055 C 57.098 49.131,56.806 49.397,56.535 49.645 C 56.265 49.894,55.697 50.281,55.272 50.507 C 54.847 50.732,54.500 50.964,54.500 51.022 C 54.500 51.160,53.108 51.610,52.250 51.750 C 51.883 51.810,51.377 51.937,51.125 52.033 C 50.835 52.143,50.590 52.149,50.458 52.050 C 50.344 51.963,50.073 51.883,49.856 51.872 C 49.640 51.860,49.426 51.815,49.383 51.771 C 49.266 51.655,49.829 46.309,49.999 45.917 C 50.079 45.733,50.304 44.431,50.499 43.022 C 50.695 41.614,50.921 40.339,51.003 40.189 C 51.084 40.039,51.311 39.130,51.508 38.169 C 51.705 37.207,51.960 36.232,52.075 36.002 C 52.191 35.772,52.420 35.077,52.584 34.458 C 52.748 33.840,52.935 33.333,52.998 33.333 C 53.062 33.333,53.209 33.015,53.326 32.625 C 53.584 31.764,54.813 29.468,55.115 29.283 C 55.235 29.210,55.333 29.051,55.333 28.930 C 55.333 28.646,56.675 27.406,57.142 27.258 C 57.339 27.195,57.500 27.079,57.500 27.000 C 57.500 26.712,58.792 26.596,59.405 26.829 M289.450 27.603 C 290.547 27.976,292.492 29.568,292.498 30.099 C 292.499 30.200,292.650 30.417,292.833 30.583 C 293.017 30.749,293.167 30.947,293.167 31.022 C 293.167 31.098,293.422 31.705,293.733 32.371 C 294.045 33.038,294.428 34.221,294.585 35.000 C 294.741 35.779,294.934 36.567,295.013 36.750 C 295.652 38.234,295.621 52.558,294.978 52.806 C 294.898 52.836,294.833 53.082,294.833 53.352 C 294.833 54.071,294.140 58.569,294.014 58.667 C 293.955 58.712,293.730 59.500,293.513 60.417 C 293.297 61.333,293.067 62.121,293.001 62.167 C 292.936 62.212,292.717 62.752,292.515 63.364 C 292.312 63.977,292.095 64.502,292.032 64.531 C 291.968 64.560,291.735 64.977,291.513 65.458 C 291.291 65.940,291.064 66.333,291.007 66.333 C 290.951 66.333,290.765 66.577,290.593 66.875 C 288.858 69.890,283.973 70.936,281.453 68.833 C 280.583 68.107,279.867 67.349,279.524 66.792 C 279.312 66.448,279.086 66.167,279.020 66.167 C 278.954 66.167,278.801 65.885,278.679 65.542 C 278.557 65.198,278.313 64.617,278.137 64.250 C 277.775 63.497,277.167 61.058,277.167 60.360 C 277.167 60.107,277.073 59.806,276.958 59.691 C 276.677 59.410,276.658 48.667,276.938 48.316 C 277.040 48.188,277.175 47.408,277.238 46.583 C 277.389 44.608,277.808 41.669,277.999 41.250 C 278.082 41.067,278.304 40.137,278.492 39.183 C 278.680 38.230,278.901 37.367,278.982 37.267 C 279.064 37.166,279.266 36.596,279.430 36.000 C 279.595 35.404,279.941 34.490,280.198 33.968 C 280.456 33.446,280.667 32.945,280.667 32.855 C 280.667 32.764,280.762 32.591,280.877 32.470 C 280.993 32.349,281.275 31.889,281.502 31.447 C 281.853 30.768,283.698 28.707,284.539 28.055 C 285.445 27.353,288.016 27.116,289.450 27.603 M151.631 27.917 C 151.696 28.009,151.957 28.190,152.209 28.321 C 153.017 28.737,153.844 29.773,154.435 31.110 C 154.672 31.646,154.968 32.315,155.094 32.598 C 155.220 32.880,155.446 33.855,155.596 34.764 C 155.747 35.673,155.955 36.597,156.060 36.817 C 156.343 37.414,156.326 47.364,156.042 47.458 C 155.921 47.498,155.833 47.809,155.833 48.193 C 155.833 49.073,155.198 53.325,155.003 53.750 C 154.919 53.933,154.696 54.863,154.508 55.817 C 154.320 56.770,154.105 57.633,154.031 57.733 C 153.956 57.834,153.715 58.479,153.495 59.167 C 153.275 59.854,153.049 60.454,152.993 60.500 C 152.937 60.546,152.714 61.015,152.498 61.542 C 152.282 62.069,152.051 62.500,151.986 62.500 C 151.920 62.500,151.783 62.737,151.683 63.026 C 150.909 65.244,146.757 68.782,144.875 68.825 C 144.669 68.829,144.500 68.908,144.500 69.000 C 144.500 69.260,140.676 69.219,140.577 68.958 C 140.500 68.759,140.838 62.930,141.149 59.083 C 141.230 58.075,141.433 54.981,141.599 52.208 C 141.766 49.435,141.961 47.167,142.034 47.167 C 142.107 47.167,142.167 46.691,142.167 46.110 C 142.167 44.902,142.591 40.327,142.819 39.083 C 143.217 36.904,143.830 34.368,144.068 33.917 C 144.213 33.642,144.332 33.332,144.332 33.230 C 144.335 32.717,145.674 30.314,146.422 29.480 C 146.963 28.877,148.167 27.915,148.167 28.087 C 148.167 28.144,148.292 28.065,148.445 27.913 C 148.758 27.599,151.407 27.602,151.631 27.917 M245.957 28.445 C 246.904 28.839,248.031 30.122,248.553 31.400 C 248.744 31.867,248.954 32.288,249.020 32.335 C 249.166 32.439,249.833 35.012,249.833 35.472 C 249.833 35.656,249.899 35.831,249.979 35.861 C 250.587 36.093,250.616 48.144,250.012 49.583 C 249.936 49.767,249.704 51.079,249.498 52.500 C 249.292 53.921,249.059 55.108,248.979 55.139 C 248.899 55.169,248.833 55.328,248.833 55.491 C 248.833 55.909,248.165 58.549,248.008 58.750 C 247.937 58.842,247.712 59.442,247.508 60.083 C 247.305 60.725,247.042 61.362,246.925 61.500 C 246.808 61.637,246.579 62.106,246.417 62.542 C 246.254 62.977,246.075 63.333,246.019 63.333 C 245.962 63.333,245.731 63.690,245.505 64.125 C 245.279 64.560,244.942 65.073,244.756 65.264 C 244.569 65.455,244.079 65.981,243.667 66.433 C 242.960 67.207,241.346 68.500,241.087 68.500 C 241.021 68.500,240.769 68.641,240.526 68.812 C 239.628 69.446,234.946 69.835,234.746 69.292 C 234.672 69.091,234.803 66.869,235.147 62.500 C 235.237 61.354,235.434 58.204,235.585 55.500 C 235.735 52.796,235.902 50.471,235.955 50.333 C 236.104 49.946,236.135 49.625,236.329 46.417 C 236.547 42.800,236.805 40.202,236.990 39.750 C 237.065 39.567,237.294 38.442,237.498 37.250 C 237.703 36.058,237.927 35.008,237.997 34.917 C 238.066 34.825,238.256 34.337,238.419 33.833 C 239.839 29.434,242.965 27.200,245.957 28.445 M224.250 80.026 C 219.356 80.314,209.254 80.429,185.167 80.471 C 159.282 80.515,146.508 80.629,138.583 80.886 C 137.392 80.924,133.904 81.037,130.833 81.136 C 124.706 81.334,119.509 81.450,110.500 81.590 C 107.246 81.641,102.971 81.723,101.000 81.772 C 91.696 82.003,51.305 81.878,47.167 81.606 C 42.642 81.308,31.446 81.289,31.000 81.579 C 30.863 81.668,30.675 81.744,30.583 81.748 C 30.492 81.752,30.042 81.953,29.583 82.195 C 27.636 83.222,27.749 84.939,29.838 86.082 L 30.750 86.581 38.554 86.694 C 42.847 86.757,46.484 86.861,46.638 86.926 C 46.791 86.991,47.404 87.085,48.000 87.136 C 49.422 87.258,100.787 87.264,105.750 87.143 C 107.858 87.091,113.596 86.967,118.500 86.867 C 127.243 86.689,132.680 86.548,135.833 86.417 C 143.287 86.109,149.330 86.043,186.167 85.869 C 203.721 85.786,218.196 85.675,218.333 85.622 C 218.933 85.390,234.358 85.335,299.286 85.333 L 368.323 85.332 369.426 84.931 C 373.041 83.619,372.375 80.920,368.233 80.100 C 366.737 79.804,229.213 79.733,224.250 80.026 " stroke="none" fill="#f4f4f4" fill-rule="evenodd"></path><path id="path1" d="M209.560 39.045 C 209.198 39.423,208.339 40.180,207.247 41.083 C 206.914 41.358,206.404 41.796,206.113 42.057 C 205.822 42.317,205.415 42.644,205.208 42.784 C 204.566 43.219,204.598 43.288,206.267 45.083 C 206.778 45.633,207.246 46.170,207.306 46.278 C 207.367 46.385,207.816 46.892,208.305 47.403 C 208.794 47.915,209.124 48.333,209.040 48.333 C 208.955 48.333,208.447 48.746,207.909 49.250 C 207.372 49.754,206.899 50.167,206.860 50.167 C 206.820 50.167,206.474 50.448,206.091 50.792 C 205.709 51.135,205.119 51.654,204.781 51.944 C 204.012 52.604,204.147 53.667,205.000 53.667 C 205.092 53.667,205.167 53.772,205.167 53.902 C 205.167 54.031,205.373 54.315,205.625 54.532 C 205.877 54.750,206.672 55.582,207.391 56.381 C 208.110 57.180,208.822 57.833,208.974 57.832 C 209.300 57.830,211.882 55.713,213.511 54.113 L 213.989 53.643 214.703 54.389 C 215.762 55.497,217.588 57.522,217.998 58.043 C 218.472 58.645,218.942 58.620,219.592 57.958 C 219.884 57.660,220.564 57.027,221.103 56.551 C 221.642 56.075,222.420 55.381,222.832 55.010 C 223.244 54.638,223.638 54.333,223.707 54.333 C 223.936 54.333,223.838 53.545,223.583 53.333 C 223.446 53.219,223.333 53.058,223.333 52.976 C 223.333 52.894,222.977 52.456,222.542 52.004 C 222.106 51.551,221.412 50.795,221.000 50.324 C 220.588 49.853,220.156 49.368,220.042 49.246 C 219.927 49.124,219.833 48.991,219.833 48.952 C 219.833 48.817,220.977 47.667,221.114 47.665 C 221.189 47.664,221.605 47.304,222.038 46.866 C 222.471 46.428,223.128 45.848,223.497 45.576 C 224.690 44.700,224.618 44.374,222.809 42.466 C 222.227 41.851,221.338 40.895,220.833 40.341 C 219.642 39.033,219.368 39.085,217.577 40.958 C 217.293 41.256,217.002 41.500,216.932 41.500 C 216.862 41.500,216.382 41.912,215.865 42.417 C 214.818 43.439,214.648 43.498,214.289 42.958 C 214.152 42.752,213.449 41.968,212.728 41.215 C 212.007 40.463,211.192 39.583,210.917 39.261 C 210.335 38.577,210.051 38.532,209.560 39.045 M176.872 60.500 C 176.872 60.821,176.906 60.952,176.948 60.792 C 176.990 60.631,176.990 60.369,176.948 60.208 C 176.906 60.048,176.872 60.179,176.872 60.500 M142.542 72.115 C 142.702 72.157,142.965 72.157,143.125 72.115 C 143.285 72.073,143.154 72.039,142.833 72.039 C 142.512 72.039,142.381 72.073,142.542 72.115 M57.458 81.957 C 58.031 81.989,58.969 81.989,59.542 81.957 C 60.115 81.924,59.646 81.898,58.500 81.898 C 57.354 81.898,56.885 81.924,57.458 81.957 M61.128 81.954 C 61.428 81.991,61.878 81.990,62.128 81.952 C 62.378 81.914,62.133 81.884,61.583 81.885 C 61.033 81.886,60.828 81.917,61.128 81.954 M64.875 81.955 C 65.219 81.991,65.781 81.991,66.125 81.955 C 66.469 81.919,66.188 81.889,65.500 81.889 C 64.813 81.889,64.531 81.919,64.875 81.955 M68.625 81.958 C 69.473 81.988,70.860 81.988,71.708 81.958 C 72.556 81.927,71.862 81.903,70.167 81.903 C 68.471 81.903,67.777 81.927,68.625 81.958 M73.792 81.954 C 74.090 81.991,74.577 81.991,74.875 81.954 C 75.173 81.917,74.929 81.887,74.333 81.887 C 73.737 81.887,73.494 81.917,73.792 81.954 M75.958 81.954 C 76.256 81.991,76.744 81.991,77.042 81.954 C 77.340 81.917,77.096 81.887,76.500 81.887 C 75.904 81.887,75.660 81.917,75.958 81.954 M78.625 81.957 C 79.198 81.989,80.135 81.989,80.708 81.957 C 81.281 81.924,80.813 81.898,79.667 81.898 C 78.521 81.898,78.052 81.924,78.625 81.957 M85.125 81.954 C 85.423 81.991,85.910 81.991,86.208 81.954 C 86.506 81.917,86.263 81.887,85.667 81.887 C 85.071 81.887,84.827 81.917,85.125 81.954 M87.125 81.951 C 87.331 81.991,87.669 81.991,87.875 81.951 C 88.081 81.911,87.912 81.879,87.500 81.879 C 87.087 81.879,86.919 81.911,87.125 81.951 " stroke="none" fill="#dcc494" fill-rule="evenodd"></path></g></svg>