<svg id="svg" version="1.1" xmlns="http://www.w3.org/2000/svg" xmlns:xlink="http://www.w3.org/1999/xlink" width="400" height="400" viewBox="0, 0, 400,400"><g id="svgg"><path id="path0" d="M249.821 10.701 C 249.172 11.745,243.997 19.576,238.321 28.102 C 232.644 36.628,228.000 43.768,228.000 43.968 C 228.000 44.169,227.849 44.393,227.664 44.467 C 227.479 44.540,226.221 46.310,224.867 48.400 C 223.514 50.490,222.224 52.470,222.001 52.800 C 221.779 53.130,215.202 63.030,207.387 74.800 C 199.572 86.570,190.978 99.504,188.289 103.543 C 185.600 107.581,183.284 111.071,183.142 111.298 C 182.991 111.540,179.966 109.870,175.816 107.255 C 171.928 104.805,168.594 102.800,168.407 102.800 C 168.220 102.800,168.007 102.649,167.933 102.465 C 167.860 102.281,164.959 100.346,161.487 98.165 C 158.015 95.984,154.145 93.527,152.887 92.704 C 151.629 91.882,150.240 91.020,149.800 90.789 C 149.360 90.559,147.980 89.702,146.733 88.885 C 145.486 88.068,143.056 86.516,141.333 85.434 C 136.646 82.494,129.605 78.010,127.855 76.852 C 127.006 76.289,125.974 75.643,125.564 75.415 C 124.392 74.764,120.106 72.071,116.600 69.783 C 111.406 66.394,101.929 60.400,101.763 60.400 C 101.679 60.400,99.313 58.904,96.505 57.075 C 93.697 55.246,90.544 53.221,89.498 52.575 C 88.451 51.929,85.231 49.885,82.341 48.034 L 77.086 44.668 76.243 45.807 C 75.285 47.101,63.745 64.148,60.542 69.000 C 59.381 70.760,57.672 73.280,56.744 74.599 C 54.831 77.323,43.479 94.136,36.083 105.200 C 33.362 109.270,30.926 112.878,30.668 113.218 C 29.079 115.315,27.600 117.588,27.600 117.932 C 27.600 118.153,27.449 118.393,27.264 118.467 C 26.989 118.576,21.514 126.537,19.200 130.194 C 18.391 131.471,9.218 144.967,7.207 147.839 C 5.467 150.322,5.339 150.674,6.100 150.871 C 6.375 150.942,8.490 152.241,10.800 153.758 C 23.670 162.210,26.924 164.353,30.098 166.469 C 32.022 167.751,33.669 168.800,33.759 168.800 C 33.849 168.800,36.149 170.302,38.872 172.137 C 41.594 173.972,44.001 175.547,44.220 175.637 C 44.439 175.727,47.495 177.710,51.009 180.044 C 56.742 183.850,64.666 189.049,73.200 194.601 C 74.850 195.675,79.260 198.558,83.000 201.009 C 86.740 203.459,91.150 206.338,92.800 207.407 C 100.003 212.071,106.711 216.459,108.063 217.391 L 109.526 218.399 103.147 227.899 C 99.638 233.125,93.884 241.630,90.359 246.800 C 78.858 263.673,75.802 268.194,75.639 268.582 C 75.551 268.792,75.311 269.152,75.106 269.382 C 74.732 269.802,68.661 278.749,63.694 286.200 C 62.228 288.400,60.346 291.116,59.514 292.236 C 58.681 293.356,58.000 294.466,58.000 294.703 C 58.000 294.940,57.846 295.193,57.657 295.267 C 57.468 295.340,56.080 297.290,54.572 299.600 C 53.063 301.910,51.724 303.890,51.595 304.000 C 51.466 304.110,50.040 306.180,48.425 308.600 C 43.863 315.436,39.539 321.729,38.875 322.502 C 38.543 322.889,38.345 323.276,38.436 323.363 C 38.675 323.595,48.822 330.025,50.000 330.692 C 50.550 331.004,52.350 332.133,54.000 333.201 C 55.650 334.270,58.440 336.001,60.200 337.049 C 61.960 338.097,63.490 339.061,63.600 339.192 C 63.781 339.407,65.501 340.504,76.800 347.609 C 78.670 348.785,83.170 351.631,86.800 353.932 C 90.430 356.233,94.447 358.765,95.728 359.558 C 97.008 360.351,98.477 361.270,98.993 361.600 C 102.894 364.096,108.264 367.428,108.596 367.560 C 108.818 367.648,109.090 367.834,109.200 367.973 C 109.510 368.365,114.706 371.637,116.000 372.255 C 116.330 372.413,116.690 372.653,116.800 372.789 C 116.910 372.925,118.706 374.108,120.790 375.418 C 124.932 378.021,124.914 378.010,128.041 379.918 C 131.259 381.883,131.717 382.170,132.178 382.519 C 134.043 383.929,145.884 391.200,146.315 391.200 C 146.536 391.200,147.317 390.255,148.050 389.100 C 148.783 387.945,149.567 386.804,149.792 386.565 C 150.016 386.326,152.360 382.945,155.000 379.052 C 160.210 371.368,164.409 365.237,166.404 362.400 C 167.647 360.632,173.385 352.304,180.829 341.463 C 182.903 338.442,184.780 335.670,185.000 335.302 C 185.220 334.935,185.580 334.418,185.800 334.154 C 186.020 333.890,187.190 332.217,188.400 330.435 C 193.069 323.562,197.604 316.980,197.984 316.527 C 198.203 316.267,199.190 314.827,200.177 313.327 C 201.971 310.604,206.087 304.599,213.981 293.190 C 216.281 289.866,218.300 287.062,218.468 286.958 C 218.763 286.776,221.992 288.876,254.800 310.591 C 275.403 324.228,280.110 327.335,280.867 327.800 C 281.225 328.020,283.923 329.836,286.863 331.835 C 289.804 333.834,292.387 335.544,292.605 335.635 C 292.822 335.726,300.006 340.476,308.569 346.192 C 317.133 351.907,324.204 356.389,324.283 356.150 C 324.438 355.687,324.952 354.903,339.162 333.459 C 344.243 325.791,348.400 319.356,348.400 319.159 C 348.400 318.961,348.580 318.800,348.800 318.800 C 349.020 318.800,349.200 318.612,349.200 318.383 C 349.200 318.154,349.391 317.749,349.623 317.483 C 349.856 317.217,352.458 313.310,355.406 308.800 C 358.353 304.290,360.952 300.383,361.182 300.117 C 361.412 299.851,361.600 299.461,361.600 299.250 C 361.600 299.039,361.750 298.807,361.934 298.733 C 362.117 298.660,363.496 296.710,364.998 294.400 C 367.899 289.937,379.751 271.991,388.764 258.410 C 391.754 253.906,394.253 250.102,394.318 249.957 C 394.409 249.752,299.826 186.290,296.901 184.594 C 296.515 184.370,295.392 183.650,294.405 182.994 C 290.917 180.674,290.729 181.605,296.408 173.061 C 299.208 168.847,303.982 161.620,307.017 157.000 C 310.052 152.380,315.450 144.190,319.012 138.800 C 322.575 133.410,328.512 124.410,332.205 118.800 C 344.145 100.667,349.642 92.344,354.469 85.094 C 358.954 78.357,359.602 77.202,358.900 77.198 C 358.735 77.198,356.800 76.045,354.600 74.636 C 352.400 73.228,348.391 70.664,345.692 68.938 C 342.993 67.212,339.303 64.833,337.492 63.652 C 335.681 62.471,333.660 61.203,333.000 60.834 C 332.340 60.465,329.708 58.777,327.151 57.082 C 324.594 55.387,322.314 54.000,322.085 54.000 C 321.855 54.000,321.607 53.843,321.533 53.651 C 321.460 53.460,319.330 52.023,316.800 50.460 C 314.270 48.896,312.015 47.464,311.790 47.276 C 311.564 47.089,310.844 46.601,310.190 46.192 C 309.535 45.783,307.524 44.492,305.721 43.324 C 303.918 42.156,302.253 41.200,302.021 41.200 C 301.789 41.200,301.600 41.050,301.600 40.868 C 301.600 40.685,301.105 40.281,300.500 39.970 C 299.895 39.659,298.318 38.683,296.996 37.802 C 295.673 36.921,293.333 35.414,291.796 34.453 C 288.699 32.517,286.385 31.040,282.200 28.325 C 275.854 24.209,272.362 22.000,272.202 22.000 C 272.108 22.000,270.577 21.010,268.800 19.800 C 267.023 18.590,265.485 17.600,265.382 17.600 C 265.280 17.600,263.622 16.548,261.698 15.262 C 250.825 7.993,251.372 8.203,249.821 10.701 " stroke="none" fill="#dcc494" fill-rule="evenodd"></path><path id="path1" d="" stroke="none" fill="#e0c494" fill-rule="evenodd"></path><path id="path2" d="" stroke="none" fill="#e0c494" fill-rule="evenodd"></path><path id="path3" d="" stroke="none" fill="#e0c494" fill-rule="evenodd"></path><path id="path4" d="" stroke="none" fill="#e0c494" fill-rule="evenodd"></path></g></svg>